<svg version="1.1" id="Layer_1" xmlns="http://www.w3.org/2000/svg" x="0" y="0" viewBox="0 0 1500.7 581" style="enable-background:new 0 0 1500.7 581" xml:space="preserve"><style>.st0{fill:#eb1e28}</style><path class="st0" d="M69 369.2c.4 1.4.7 2.4 1 3.5 5.9 26.4 21.4 45.1 45.6 56.8 12.6 6.1 26.1 9.7 39.8 12.1 18.2 3.1 36.5 3.9 54.9 3.1 26.1-1.2 51.6-5.9 76.6-13.1 35.2-10.1 68.5-24.7 100.6-42.1 1.5-.8 3-1.6 4.9-2.5 15.7 24 31.3 47.9 47 71.9-.9.7-1.4 1.2-2.1 1.6-43.6 24.4-88.8 45.3-136.8 59.9-27.8 8.4-56 14.5-85 17.3-41.8 4-83 1.4-123.3-10.9-18.1-5.7-35.2-13.6-50.2-25.5-21.6-17-34.6-39.2-39.5-66.1-1.2-6.3-1.6-12.7-2.4-19.1-.2-2 .5-3.2 2.1-4.3C23.9 398 45.5 384 67.1 370.1c.5-.3 1-.5 1.9-.9z"/><path d="M156 329.4c1.3-2.1 2.1-3.3 2.9-4.5 42.3-63.8 84.6-127.5 126.8-191.3 1.9-2.8 4.1-4.2 7.3-4.8 20.8-4 41.5-8.4 62.3-12.2 16-2.9 32.1-4.9 48.4-3.7 5.3.4 10.7 1.4 15.7 3 16.8 5.4 27.4 19.6 28.4 37.2.5 8-.7 15.8-2.7 23.5-3.2 12.4-8.4 24-14.7 35.1-18.5 32.8-44.3 58.6-75.4 79.4-18.6 12.4-38.5 22.3-59.8 29.1-10.7 3.4-21.6 5-32.7 6.3-22.8 2.7-45.7 2.6-68.6 2.8l-33 .3c-1.3-.2-2.6-.2-4.9-.2zm73-46.5c1.3.2 2.1.4 2.8.4 16.9-.8 33.8-1.4 50.4-4.4 9.1-1.7 18.3-3.4 26.6-7.5 21.2-10.4 39.9-24 54.4-42.9 9.3-12.1 17.6-24.6 22.4-39.2 2-6.2 3.4-12.4 3-18.9-.3-6.2-2.7-11.4-7.3-15.6-3.6-3.2-7.8-5.2-12.4-6.2-7.6-1.8-15.4-2.2-23.2-1.2-11 1.4-22 3-33 4.5-2.4.3-4.1 1.4-5.4 3.6-25.5 41.3-51 82.5-76.5 123.8-.5.9-1 2.1-1.8 3.6z"/><path class="st0" d="M899.8 502.1V581h-41.6c-.8-3-.9-228-.1-232.4h41.2c1 5.8-.1 11.7.7 18.3 1.6-1.4 2.7-2.4 3.8-3.3 22.8-20 48.9-25 77.2-14.8 23 8.3 38.1 25.4 46.8 48 5.8 14.9 7.3 30.4 6 46.2-1 12.4-4 24.3-9.9 35.3-9.6 17.8-23.1 31.8-42.1 39.2-26.9 10.6-52.3 7.4-75.2-10.9-2-1.6-3.9-3.2-5.8-4.8-.4.1-.7.2-1 .3zm45.3-118.9c-24.3-.5-40.8 16.4-45.4 34.4-3 11.7-2.8 23.4.9 34.9 6.6 20.6 26.8 36.5 53.8 31.2 18.4-3.7 29.6-15.8 35.1-33.3 2.6-8.4 2.8-17.1 1.7-25.8-3-22.8-21-41.9-46.1-41.4zM558.5 476.3H640v41.9c-3.2.9-120.4 1.2-125 .3-.8-2.8-1.1-225.2-.2-229.7 2.9-.8 120.1-1 124.8-.2.9 3 1.1 37.2.1 41.9-1.6.1-3.3.2-5 .3h-71.2c-1.7 0-3.4.2-5.4.3v42.1c9.3.3 18.4.1 27.4.1h54.4v41.5c-5.4.4-10.9.1-16.3.2h-64.9c-1 3.1-1.3 56.2-.2 61.3zM1194.1 469.5c11.7 5.5 23.3 10.9 35.5 16.6-1.2 1.7-2.1 3.1-3.1 4.4-14 17.8-32.3 28.3-54.7 31.5-16.2 2.4-32.5 2.4-48.2-2.6-33.9-10.8-54.2-34-60.1-69.1-3.2-18.6-1.7-37.1 6.3-54.3 15.5-33.4 41.9-50.9 78.8-52 10.6-.3 21.2.7 31.4 4 31.5 10.1 50.7 31.8 58.6 63.7 2.7 11 3.1 22.2 2.4 34-9.2.6-18.2.2-27.3.3-9.1.1-18.2 0-27.3 0h-82.9c.2 1.7.3 3 .6 4.2 4.4 19.5 20.4 33.4 40.4 35.5 18.3 1.9 34.5-2.6 48.3-15.2.2-.2.5-.4 1.3-1zm-88.9-57.2h92.8c-1.1-15.9-22.1-31.5-43.8-32.4-12.6-.5-24.2 2.8-34.1 10.8-6.9 5.6-11.1 13.1-14.9 21.6z"/><path d="M354.3 328.2c8.6 13.4 17 26.5 25.4 39.8-1 .7-1.6 1.3-2.4 1.8-34.5 18.8-70.3 34.3-108.5 43.7-27.2 6.7-54.8 9.8-82.9 8.3-18.4-1-36.5-3.9-53.6-11.2-15.4-6.5-28.3-16.2-37.1-30.8-3.9-6.6-6.7-13.7-8.5-21.7 16.2-10.4 32.4-20.7 48.9-31.3.7 1.2 1.4 2 1.8 2.9 5.5 11.6 14.2 20 25.5 25.9 10.1 5.3 21 8.1 32.2 9.7 26.3 3.7 52.1.7 77.7-5.3 27-6.4 52.5-16.9 77.1-29.7 1.4-.6 2.7-1.2 4.4-2.1z"/><path class="st0" d="M662 348.4h4.7c13.5 0 27.1.1 40.6-.1 2.8 0 4.7.8 6.3 3.2 9.5 13.3 19.1 26.5 28.7 39.7.8 1.1 1.6 2.1 2.8 3.6 1.1-1.4 2-2.5 2.9-3.6 9.5-13.1 19-26.3 28.4-39.5 1.7-2.4 3.5-3.5 6.6-3.4 13.1.2 26.3.1 39.4.1h4.9c-10 14-19.6 27.2-29 40.4-9.5 13.2-19 26.3-28.8 39.9 21.6 29.8 43.2 59.5 65.1 89.8-1.2.2-1.9.5-2.6.5-14.5 0-29 0-43.4.1-2.6 0-3.8-1.3-5.1-3.1-11.6-16.1-23.3-32.1-34.9-48.2-1-1.4-2.1-2.8-3.5-4.7-1.1 1.4-2.1 2.4-2.9 3.5-11.6 16.1-23.3 32.1-34.8 48.3-2.2 3.1-4.5 4.3-8.3 4.2-12.6-.2-25.2-.1-37.8-.1h-5.4c11.1-15.6 21.8-30.3 32.4-45 10.6-14.8 21.3-29.5 32.2-44.7-19.3-26.8-38.6-53.4-58.5-80.9zM1452.4 348.6V385H1427v134c-14.3.1-28 .1-42.2-.1-.5-11.4-.2-22.5-.2-33.6-.1-11.1 0-22.2 0-33.4V385h-21.3c-.9-3.5-1.1-31.7-.3-36.7h21.5c.2-21.2 0-41.7.1-62.2 3.3-.9 37.5-1 42.3-.2v62c8.7 1 16.9.1 25.5.7zM556.3 59.4c1.6-1.1 2.6-1.8 3.6-2.4 19.7-12.5 39.4-25 59-37.7 2.5-1.6 4.6-2 7.4-.7 14.5 6.4 28 14.1 39.8 24.8 19.5 17.6 30.7 39.6 34.6 65.5 1 6.6 1.7 13.2 1.4 20.4-33.9 4.6-67.6 9.3-101.9 14V138c.4-12.6-1.2-24.9-5.8-36.7-6.6-16.7-18.2-29.2-33.1-38.7-1.6-1-3-1.9-5-3.2z"/><path d="M676 325V177.8c1.5-.1 2.8-.4 4-.3 14.6.1 29.2.1 43.8.5 8.3.2 16.5 1.6 24.5 4.1 12 3.7 21.4 10.9 28.8 20.9 8.9 12 13.7 25.6 15.1 40.5 1.4 14.8-.1 29.1-5.8 42.9-3.6 8.9-9 16.7-16.1 23.3-9.3 8.5-20.2 13.5-32.9 14.3-10.8.7-21.7 1.1-32.5 1.4-8.2.2-16.3.1-24.5 0-1.3-.1-2.8-.3-4.4-.4zm27.4-121.1c-.2 1.7-.4 3-.4 4.3v86c0 1.3.2 2.6.4 4.1 11 0 21.5.5 32-1.4 9.9-1.8 17.3-7 22.3-15.6 2.1-3.7 3.9-7.7 5-11.8 3.1-11.5 3.1-23.1-.1-34.5-4.3-15.5-14.2-25.6-30.2-29-5.7-1.2-11.6-1.6-17.5-2.1-3.7-.2-7.4 0-11.5 0z"/><path class="st0" d="M1266.6 348.7h36v20c2-1.1 2.3-2.6 3-3.8 6.1-10.2 14.6-17.4 26.5-20 8.7-1.9 17-.8 25.4 3.5-4.4 12.1-8.7 24-13 36.2-2.2-.8-3.9-1.5-5.6-2.1-8.2-2.8-14.6-1-20.1 5.6-3.6 4.3-6.1 9.2-7 14.7-1.3 8.2-2.5 16.4-3.1 24.7-.5 6.4-.3 12.9-.3 19.3 0 22.8 0 45.6.1 68.3 0 1-.2 2.1-.2 3.1-3.1.9-37 1.1-41.6.2-.1-56.4-.1-112.9-.1-169.7z"/><path d="M1123.6 216.2V325h-26.1c-.2-3.5-.4-6.8-.6-11-1.6 1.1-2.5 1.7-3.4 2.5-19 17-47.6 14.6-64.9-2.4-12.4-12.2-17.9-27-17.7-44.1.2-13.6 3.4-26.3 12.1-37.1 10.4-13.1 23.8-20 40.8-19.5 10.8.3 20.4 4.1 28.7 11.1 1.2 1 2.4 2 3.9 3.2 1.7-3.7.2-7.3 1.4-11.1 8.2-.8 16.8-.2 25.8-.4zm-25.1 54.1c-.4-3-.6-6.1-1.3-9.1-3.1-13.4-14.3-22.6-28.2-23.2-13.5-.6-25.1 7.5-29.4 20.5-2.8 8.4-2.8 16.9.4 25.2 4 10.5 11.4 17.5 22.7 19.4 11.6 2 21.5-1.6 28.9-10.9 4.9-6.4 6.7-13.9 6.9-21.9zM898.5 227.3v-11c9-.1 17.5-.2 25.9 0 1.1 3.3 1.3 103.5.3 108.8-8.5.4-17.1.2-26.2.2v-11.4c-1.8 1.3-2.9 2-3.8 2.8-9.1 7.8-19.6 11.7-31.7 11.4-11.7-.3-22-4.4-30.8-12.1-12.4-10.9-19-24.6-19.7-41.2-.4-9 .2-18 3.4-26.5 6.5-17.1 17.9-29.2 36-33.6 15.2-3.7 29.2-.6 41.5 9.4 1.2 1 2.5 2 3.7 3 .2 0 .4 0 1.4.2zm1.2 43.2c-.1-1.9-.2-3.7-.4-5.6-1.6-14.5-12.8-25.5-27.1-26.8-14.8-1.3-27.4 7.1-31.5 21.3-2.4 8-2.3 16.2.5 24.1 7.2 20.2 32.3 26.8 48 12.6 7.6-6.8 10.5-15.6 10.5-25.6zM556.4 194c-.8 2-1.3 3.3-1.9 4.6-12 26.3-28.4 49.7-47.6 71.2-20.8 23.1-44.2 43.2-69.2 61.6-.6.5-1.3.9-1.9 1.3-2.5-1.6-26.9-31.5-30.1-36.8 1.1-.9 2.2-1.8 3.4-2.7 21.3-16.1 41-34 58.1-54.7 8.9-10.8 16.9-22.1 23.7-34.3 1.4-2.5 3.1-3.6 5.9-3.9 14.4-1.5 28.7-3.1 43.1-4.7 5.2-.5 10.5-1 16.5-1.6zM1.5 383.3c1.4-7.3 2.4-14.1 3.9-20.7 6.2-27.5 17.9-52.7 32.4-76.6 10.3-17.1 22.1-33.2 34.7-48.8 9.2-11.5 18.6-22.8 28.9-33.5 2.3-2.4 4.4-3.5 8-2.8 8.8 1.8 17.7 2.9 27.1 4.4-.8 1.1-1.3 2-2 2.7-17.2 20.1-33.1 41.1-45.8 64.4-9.7 17.6-16.9 36-20 55.8-.6 3.7-1 7.4-1.2 11.2-.1 2.1-.7 3.5-2.6 4.6-20.2 12.6-40.4 25.4-60.6 38-.6.4-1.3.7-2.8 1.3zM129 176.4C178.5 130 233.8 93.5 293.3 63.2c33.6-17.1 68.5-30.9 105.6-41.3-.9 1.7-1.3 2.6-1.8 3.5-5.4 8.9-10.9 17.9-16.2 26.8-1.3 2.1-2.9 3.3-5.2 3.9-47.1 13.5-90.9 34.4-132.2 60.5-22 13.9-43.4 28.7-63.1 45.8-5.8 5-11.3 10.3-16.9 15.5-1.3 1.3-2.6 2.1-4.6 1.9-9.2-1-18.4-1.9-27.6-2.9-.5 0-1-.2-2.3-.5zM414 46c.7-1.3 1.1-2.1 1.5-2.9 5.3-9.2 10.6-18.3 15.8-27.5 1.2-2.2 2.7-3.3 5.2-3.9 18-4.1 36.2-7.4 54.6-9.4C506 .7 520.9-.3 536 .1c18.1.4 36 2.5 53.7 6.5.8.2 1.5.5 2.7.9-.9.8-1.5 1.4-2.2 1.9-19.3 12.3-38.6 24.6-57.9 37-1.9 1.2-3.5 1.4-5.6.8-22.6-7-45.8-8.2-69.2-6.7-13.3.8-26.4 2.6-39.4 5.1-1.3.1-2.4.2-4.1.4zM1000.3 216v22.4c-5 1.5-10.3-.2-15.8 1.1-.5 9.4-.2 18.9-.2 28.4-.1 9.4 0 18.8 0 28.1v28.3c-3.4 1.1-22.3 1.2-26.7.2-.1-1.6-.2-3.3-.2-5V239.1c-4.9-.2-9.2-.3-13.4-.5-1-3.6-1.1-18.7 0-22.6h7.8c5.6 0 5.6 0 5.6-5.5V180c0-1.4.1-2.9.2-4.5H984c.1 1.3.3 2.7.3 4.1v36.3c5.4.1 10.5.1 16 .1z"/><path d="M507.9 62.2c-1.2.8-2 1.5-2.9 2-12.4 7.7-24.8 15.4-37.2 23.2-2.2 1.4-4.1 1.8-6.7.9-13.9-5-28.4-6.6-43.1-5.9-36.2 1.5-70.6 10.5-103.7 24.8-1.1.5-2.2.9-3.3 1.4-.2.1-.5.1-1.4.1-.8-5.2-1.6-10.5-2.2-15.8-.1-.8.8-1.8 1.5-2.5.7-.6 1.6-.9 2.5-1.3 37.1-17.4 76-28.4 116.6-33.5 20.7-2.6 41.4-2.7 62 1.4 5.1 1 10.1 2.5 15.2 3.9.8.3 1.5.7 2.7 1.3zM568.3 147.5c-20.3 3-40.3 6-60.9 9 0-1.4-.1-2.6 0-3.7.6-9.5-.2-18.7-3.6-27.7-2.6-6.7-6.3-12.7-11.4-17.8-1.3-1.3-2.7-2.5-4.4-4 1.2-1 1.9-1.7 2.8-2.2 13.3-8.6 26.5-17.1 39.8-25.7 3.3-2.1 3.3-2.1 6.7.2 17.6 12.3 28.2 29 30.9 50.4.9 7 1.1 14 .1 21.5zM171.7 210.3c-4.3 6.2-8.2 11.9-12.2 17.6-8.6 12.2-16.3 24.9-21.7 38.8-4 10.3-6.6 20.9-6.8 32.1 0 1.8-.5 3-2 4-14.2 9.2-28.3 18.4-42.5 27.5-.3.2-.7.3-1.6.5 0-2.2-.1-4.3 0-6.3 1.2-14.4 5.1-28.2 10.8-41.5 7.6-17.9 17.9-34.1 29.6-49.6 6-7.9 12.1-15.7 18.1-23.6 1.8-2.4 3.7-3.2 6.8-2.6 7 1.4 14 2.1 21.5 3.1z"/><path class="st0" d="M273.2 108c.4 6.5.9 12.2 1.2 17.9.1 1.7-1.5 2-2.6 2.7-13.9 9.1-27.9 17.9-41.6 27.3-10.9 7.5-20.9 16.3-30.4 25.6-1.7 1.7-3.3 2.2-5.7 1.9-5.8-.9-11.7-1.3-17.5-2-1.3-.1-2.6-.4-4.1-.7.3-2 1.8-2.7 2.9-3.8 19.8-18.6 41.5-34.7 64.5-49.1 9.3-5.8 18.7-11.5 28.1-17.2 1.4-.7 2.9-1.3 5.2-2.6z"/><path d="M1495.4 254c-.4.9-.8 1.9-1.1 2.8-2.1 5.9-4.2 11.9-6.4 17.8-.3.8-.5 1.6-.9 2.2-.8 1.2-2.2 1.2-2.9-.1-.5-.8-.7-1.7-1-2.6-1.9-5.8-3.9-11.7-5.8-17.5-.3-.8-.7-1.6-1.7-2.4-.2 1-.4 1.9-.5 2.9-.3 5.8-.6 11.5-.9 17.3-.1.9-.1 2-.5 2.7-.4.6-1.4.7-2.8 1.4.7-10.3 1.4-19.9 2.1-29.6 1.6-.1 2.8-.2 4.4-.3 2.7 7.8 5.4 15.6 8.1 23.3h.7l8.4-23.1h4.4c.1 1.6.3 3.1.4 4.5.4 6.7.9 13.4 1.3 20.1.1 1.1.2 2.2 0 3.2-.1.5-.8 1.2-1.2 1.2-.5 0-1.3-.6-1.4-1-.3-2-.6-4-.7-6-.3-4.8-.5-9.6-.7-14.5 0-.8-.2-1.5-.3-2.3h-1zM1454.9 251h-6.9c-1.2 0-2.1-.5-1.3-2.2h20.7c-.2 3.1-2.4 2-3.9 2.2-1.5.2-3.1.2-5.2.4V273.6c0 .9.1 1.9-.1 2.8-.1.5-.9 1.4-1.2 1.3-.6-.2-1.4-.7-1.6-1.3-.3-1-.2-2.1-.2-3.2V256c-.1-1.3-.2-2.8-.3-5z"/></svg>