<svg version="1.1" id="Layer_1" xmlns="http://www.w3.org/2000/svg" x="0" y="0" viewBox="0 0 1920 1080" style="enable-background:new 0 0 1920 1080" xml:space="preserve"><style>.st2{fill:none;stroke:#fff;stroke-miterlimit:10}</style><linearGradient id="SVGID_1_" gradientUnits="userSpaceOnUse" x1="6.426" y1="19.312" x2="1914.17" y2="1061.014"><stop offset="0" style="stop-color:#1ca792"/><stop offset="1" style="stop-color:#23c985"/></linearGradient><path style="fill:url(#SVGID_1_)" d="M0 0h1920v1080H0z"/><g style="opacity:.25"><path class="st2" d="m0 165.8 23.6 13.6 104.6 60.2 104.5 60.2L337.2 360l104.6 60.2 104.5 60.2 104.5 60.2 104.6 60.2L861 661.7l105.5 60.8 105.6 60.8 105.6 60.8 105.6 60.8 105.6 60.8 105.6 60.9 92.8 53.4M1389.2 1085.9l-10.3-5.9-95.3-54.9-105.6-60.8-105.6-60.8-105.5-60.8-105.6-60.8L755.7 721l-105.6-60.8L545.6 600 441 539.8l-104.5-60.2L232 419.4l-104.6-60.2L22.9 299 0 285.8M1178.4 1084.5l-7.9-4.5-97.7-56.3-105.6-60.8-105.6-60.8L756 841.2l-105.6-60.8-105.6-60.8-104.5-60.2-104.5-60.2L231.2 539l-104.5-60.2-104.5-60.2L0 405.8M0 525.8l21.4 12.4L126 598.4l104.5 60.2L335 718.8 439.6 779l105.6 60.8 105.5 60.8 105.6 60.9 105.6 60.8 100.3 57.7 5.3 3.1M756.7 1081.7l-2.9-1.7-102.7-59.2L545.5 960l-105.6-60.8-105.6-60.8-104.5-60.2L125.2 718 20.7 657.8 0 645.8M0 765.9l20 11.5 104.5 60.2L229 897.8l105.6 60.8 105.6 60.8 105.2 60.6.4.2M0 885.9 19.2 897l104.6 60.2 105.5 60.8h.1l105.5 60.8 2.1 1.2M0 1005.9l18.5 10.7 105.6 60.8 4.5 2.6M1795.8 1080l-90.4-52.1-105.6-60.8-105.5-60.8-105.6-60.8-105.6-60.8-105.6-60.9-105.6-60.8-105.6-60.8-105.6-60.8-104.5-60.2L651.6 421l-104.5-60.2-104.5-60.2L338 240.4l-104.5-60.3L129 119.9 24.5 59.7 0 45.7M129.3 0l.5.3 104.5 60.2 104.6 60.2 104.5 60.2 104.5 60.2 104.6 60.2L757 361.5l104.5 60.3L966.1 482l105.6 60.8 105.5 60.8 105.6 60.8 105.6 60.8L1494 786l105.6 60.9 105.6 60.8 105.6 60.8 105.6 60.8 3.6 2.1M1920 911.3l-3.9-2.2-105.5-60.8-105.7-60.9-105.5-60.8-105.6-60.8-105.6-60.8-105.6-60.8-105.6-60.9-105.6-60.8-104.5-60.2-104.6-60.2-104.5-60.2-104.5-60.2-104.6-60.2-104.5-60.2L339.7 1.1 337.8 0M546.4 0l3.2 1.8L654.1 62l104.5 60.3 104.6 60.2 104.5 60.2 104.5 60.2 104.6 60.2 105.6 60.8 105.5 60.8 105.6 60.8 105.6 60.9 105.6 60.8 105.6 60.8 105.6 60.8 4.1 2.4M1920 671l-4.3-2.5-105.6-60.8-105.6-60.8-105.6-60.8-105.6-60.8-105.6-60.8-105.6-60.9-104.5-60.2-104.5-60.2L968.5 123 864 62.8 759.5 2.6 754.9 0M1920 550.9l-4.6-2.6-105.6-60.8-105.6-60.8-105.5-60.9-105.6-60.8-105.6-60.8-104.6-60.2-104.5-60.2-104.5-60.2L969.3 3.4 963.5 0M1920 430.8l-4.8-2.8-105.6-60.8-105.6-60.8-105.6-60.8-105.6-60.8-104.5-60.2-104.5-60.2-104.6-60.2L1172 0M1920 310.7l-5.1-2.9-105.5-60.8-105.6-60.8-105.6-60.9-104.5-60.2-104.6-60.2-8.5-4.9M1920 190.6l-5.3-3.1-105.6-60.8-105.6-60.8L1599 5.7l-9.9-5.7M1797.7 0l11.2 6.5 105.6 60.8 5.5 3.2"/><path class="st2" d="m0 1027 18.5-10.4 105.3-59.4L229 897.8l105.3-59.4L439.6 779l105.2-59.4 105.3-59.4 105.3-59.4 105.3-59.4L966.1 482l105.3-59.5 105.4-59.4 105.3-59.5 105.4-59.4 105.3-59.4 105.4-59.5 105.3-59.4 105.4-59.4 11.4-6.5M0 907.8 19.2 897l105.3-59.4 105.3-59.4L335 718.8l105.3-59.4L545.6 600l105.2-59.4 105.4-59.4 105.3-59.4 105.4-59.5 105.3-59.4 105.4-59.5 105.3-59.4 105.4-59.4 105.4-59.5L1599 5.7l10.1-5.7M0 788.6l20-11.2L125.2 718l105.3-59.4 105.3-59.4L441 539.8l105.3-59.4L651.6 421 757 361.5l105.3-59.4 105.4-59.4 105.4-59.5 105.3-59.4 105.4-59.4 105.3-59.5 8.7-4.9M1186.6 0l-7.4 4.2-105.3 59.4L968.5 123l-105.3 59.5-105.4 59.4-105.3 59.4-105.4 59.5-105.3 59.4-105.3 59.4L231.2 539 126 598.4 20.7 657.8 0 669.4M975.3 0l-6 3.4L864 62.8l-105.4 59.5-105.3 59.4-105.4 59.4-105.3 59.5L337.2 360 232 419.4l-105.3 59.4-105.3 59.4L0 550.3M0 431.1l22.2-12.5 105.2-59.4 105.3-59.4L338 240.4l105.4-59.5 105.3-59.4L654.1 62 759.5 2.6l4.6-2.6M552.8 0l-3.2 1.8-105.4 59.5-105.3 59.4-105.4 59.4-105.3 59.5L22.9 299 0 311.9M341.6 0l-1.9 1.1-105.4 59.4L129 119.9 23.6 179.4 0 192.7M0 73.5l24.5-13.8L129.8.3l.5-.3M119.4 1080l4.7-2.6 105.2-59.4h.1l105.2-59.4 105.3-59.4 105.3-59.4 105.2-59.4L755.7 721 861 661.7l105.3-59.5 105.4-59.4 105.3-59.5 105.4-59.4 105.3-59.4 105.4-59.5 105.3-59.4 105.4-59.4 105.3-59.5 105.4-59.4 5.5-3.1M1920 184.6l-5.3 2.9-105.3 59.5-105.4 59.4-105.3 59.4-105.4 59.5-105.4 59.4-105.3 59.5-105.4 59.4-105.3 59.4-105.4 59.5-105.2 59.4L756 841.2l-105.3 59.4L545.5 960l-105.3 59.4-105.3 59.4-2.1 1.2M1920 304.9l-5.1 2.9-105.3 59.4-105.4 59.5-105.3 59.4-105.4 59.4-105.3 59.5-105.4 59.4-105.3 59.4-105.4 59.5-105.2 59.4-105.3 59.4-105.3 59.4-105.2 59.3-104.9 59.2-.4.2M1920 425.3l-4.8 2.7-105.4 59.5-105.3 59.4-105.4 59.5-105.3 59.4-105.4 59.4-105.3 59.5-105.4 59.4-105.3 59.4-105.2 59.4-105.3 59.4-102.3 57.7-2.9 1.7M967.5 1083.1l5.5-3.1 99.8-56.3 105.2-59.4 105.3-59.4 105.4-59.4L1494 786l105.4-59.4 105.3-59.4 105.4-59.5 105.3-59.4 4.6-2.6M1178.4 1084.5l8-4.5 97.2-54.9 105.3-59.4 105.4-59.4 105.3-59.4 105.3-59.5 105.4-59.4 105.4-59.5 4.3-2.4M1389.2 1085.9l10.6-5.9 94.7-53.4 105.3-59.5 105.4-59.4 105.4-59.4 105.3-59.5 4.1-2.3M1920 906.9l-3.9 2.2-105.3 59.4-105.4 59.4-92.2 52.1M1826.6 1080l89.8-50.7 3.6-2"/></g></svg>