<svg xmlns="http://www.w3.org/2000/svg" xmlns:xlink="http://www.w3.org/1999/xlink" width="130" height="130"><defs><path id="a" fill="#000" d="M0 0h3v3H0z"/></defs><path fill="#fefefe" d="M0 0h130v130H0z"/><use x="15" y="15" xlink:href="#a"/><use x="18" y="15" xlink:href="#a"/><use x="21" y="15" xlink:href="#a"/><use x="24" y="15" xlink:href="#a"/><use x="27" y="15" xlink:href="#a"/><use x="30" y="15" xlink:href="#a"/><use x="33" y="15" xlink:href="#a"/><use x="45" y="15" xlink:href="#a"/><use x="51" y="15" xlink:href="#a"/><use x="57" y="15" xlink:href="#a"/><use x="63" y="15" xlink:href="#a"/><use x="69" y="15" xlink:href="#a"/><use x="72" y="15" xlink:href="#a"/><use x="75" y="15" xlink:href="#a"/><use x="84" y="15" xlink:href="#a"/><use x="93" y="15" xlink:href="#a"/><use x="96" y="15" xlink:href="#a"/><use x="99" y="15" xlink:href="#a"/><use x="102" y="15" xlink:href="#a"/><use x="105" y="15" xlink:href="#a"/><use x="108" y="15" xlink:href="#a"/><use x="111" y="15" xlink:href="#a"/><use x="15" y="18" xlink:href="#a"/><use x="33" y="18" xlink:href="#a"/><use x="39" y="18" xlink:href="#a"/><use x="45" y="18" xlink:href="#a"/><use x="54" y="18" xlink:href="#a"/><use x="60" y="18" xlink:href="#a"/><use x="63" y="18" xlink:href="#a"/><use x="69" y="18" xlink:href="#a"/><use x="78" y="18" xlink:href="#a"/><use x="87" y="18" xlink:href="#a"/><use x="93" y="18" xlink:href="#a"/><use x="111" y="18" xlink:href="#a"/><use x="15" y="21" xlink:href="#a"/><use x="21" y="21" xlink:href="#a"/><use x="24" y="21" xlink:href="#a"/><use x="27" y="21" xlink:href="#a"/><use x="33" y="21" xlink:href="#a"/><use x="51" y="21" xlink:href="#a"/><use x="57" y="21" xlink:href="#a"/><use x="63" y="21" xlink:href="#a"/><use x="75" y="21" xlink:href="#a"/><use x="78" y="21" xlink:href="#a"/><use x="81" y="21" xlink:href="#a"/><use x="93" y="21" xlink:href="#a"/><use x="99" y="21" xlink:href="#a"/><use x="102" y="21" xlink:href="#a"/><use x="105" y="21" xlink:href="#a"/><use x="111" y="21" xlink:href="#a"/><use x="15" y="24" xlink:href="#a"/><use x="21" y="24" xlink:href="#a"/><use x="24" y="24" xlink:href="#a"/><use x="27" y="24" xlink:href="#a"/><use x="33" y="24" xlink:href="#a"/><use x="39" y="24" xlink:href="#a"/><use x="42" y="24" xlink:href="#a"/><use x="45" y="24" xlink:href="#a"/><use x="51" y="24" xlink:href="#a"/><use x="54" y="24" xlink:href="#a"/><use x="57" y="24" xlink:href="#a"/><use x="63" y="24" xlink:href="#a"/><use x="66" y="24" xlink:href="#a"/><use x="75" y="24" xlink:href="#a"/><use x="81" y="24" xlink:href="#a"/><use x="93" y="24" xlink:href="#a"/><use x="99" y="24" xlink:href="#a"/><use x="102" y="24" xlink:href="#a"/><use x="105" y="24" xlink:href="#a"/><use x="111" y="24" xlink:href="#a"/><use x="15" y="27" xlink:href="#a"/><use x="21" y="27" xlink:href="#a"/><use x="24" y="27" xlink:href="#a"/><use x="27" y="27" xlink:href="#a"/><use x="33" y="27" xlink:href="#a"/><use x="42" y="27" xlink:href="#a"/><use x="60" y="27" xlink:href="#a"/><use x="63" y="27" xlink:href="#a"/><use x="66" y="27" xlink:href="#a"/><use x="69" y="27" xlink:href="#a"/><use x="72" y="27" xlink:href="#a"/><use x="75" y="27" xlink:href="#a"/><use x="84" y="27" xlink:href="#a"/><use x="93" y="27" xlink:href="#a"/><use x="99" y="27" xlink:href="#a"/><use x="102" y="27" xlink:href="#a"/><use x="105" y="27" xlink:href="#a"/><use x="111" y="27" xlink:href="#a"/><use x="15" y="30" xlink:href="#a"/><use x="33" y="30" xlink:href="#a"/><use x="39" y="30" xlink:href="#a"/><use x="42" y="30" xlink:href="#a"/><use x="48" y="30" xlink:href="#a"/><use x="51" y="30" xlink:href="#a"/><use x="54" y="30" xlink:href="#a"/><use x="60" y="30" xlink:href="#a"/><use x="66" y="30" xlink:href="#a"/><use x="69" y="30" xlink:href="#a"/><use x="75" y="30" xlink:href="#a"/><use x="93" y="30" xlink:href="#a"/><use x="111" y="30" xlink:href="#a"/><use x="15" y="33" xlink:href="#a"/><use x="18" y="33" xlink:href="#a"/><use x="21" y="33" xlink:href="#a"/><use x="24" y="33" xlink:href="#a"/><use x="27" y="33" xlink:href="#a"/><use x="30" y="33" xlink:href="#a"/><use x="33" y="33" xlink:href="#a"/><use x="39" y="33" xlink:href="#a"/><use x="45" y="33" xlink:href="#a"/><use x="51" y="33" xlink:href="#a"/><use x="57" y="33" xlink:href="#a"/><use x="63" y="33" xlink:href="#a"/><use x="69" y="33" xlink:href="#a"/><use x="75" y="33" xlink:href="#a"/><use x="81" y="33" xlink:href="#a"/><use x="87" y="33" xlink:href="#a"/><use x="93" y="33" xlink:href="#a"/><use x="96" y="33" xlink:href="#a"/><use x="99" y="33" xlink:href="#a"/><use x="102" y="33" xlink:href="#a"/><use x="105" y="33" xlink:href="#a"/><use x="108" y="33" xlink:href="#a"/><use x="111" y="33" xlink:href="#a"/><use x="42" y="36" xlink:href="#a"/><use x="45" y="36" xlink:href="#a"/><use x="48" y="36" xlink:href="#a"/><use x="57" y="36" xlink:href="#a"/><use x="63" y="36" xlink:href="#a"/><use x="75" y="36" xlink:href="#a"/><use x="78" y="36" xlink:href="#a"/><use x="81" y="36" xlink:href="#a"/><use x="84" y="36" xlink:href="#a"/><use x="15" y="39" xlink:href="#a"/><use x="18" y="39" xlink:href="#a"/><use x="21" y="39" xlink:href="#a"/><use x="24" y="39" xlink:href="#a"/><use x="27" y="39" xlink:href="#a"/><use x="33" y="39" xlink:href="#a"/><use x="36" y="39" xlink:href="#a"/><use x="39" y="39" xlink:href="#a"/><use x="42" y="39" xlink:href="#a"/><use x="48" y="39" xlink:href="#a"/><use x="54" y="39" xlink:href="#a"/><use x="57" y="39" xlink:href="#a"/><use x="66" y="39" xlink:href="#a"/><use x="81" y="39" xlink:href="#a"/><use x="84" y="39" xlink:href="#a"/><use x="87" y="39" xlink:href="#a"/><use x="90" y="39" xlink:href="#a"/><use x="96" y="39" xlink:href="#a"/><use x="102" y="39" xlink:href="#a"/><use x="108" y="39" xlink:href="#a"/><use x="15" y="42" xlink:href="#a"/><use x="18" y="42" xlink:href="#a"/><use x="21" y="42" xlink:href="#a"/><use x="39" y="42" xlink:href="#a"/><use x="45" y="42" xlink:href="#a"/><use x="51" y="42" xlink:href="#a"/><use x="63" y="42" xlink:href="#a"/><use x="69" y="42" xlink:href="#a"/><use x="72" y="42" xlink:href="#a"/><use x="75" y="42" xlink:href="#a"/><use x="78" y="42" xlink:href="#a"/><use x="84" y="42" xlink:href="#a"/><use x="87" y="42" xlink:href="#a"/><use x="93" y="42" xlink:href="#a"/><use x="108" y="42" xlink:href="#a"/><use x="111" y="42" xlink:href="#a"/><use x="15" y="45" xlink:href="#a"/><use x="24" y="45" xlink:href="#a"/><use x="33" y="45" xlink:href="#a"/><use x="45" y="45" xlink:href="#a"/><use x="60" y="45" xlink:href="#a"/><use x="63" y="45" xlink:href="#a"/><use x="69" y="45" xlink:href="#a"/><use x="75" y="45" xlink:href="#a"/><use x="78" y="45" xlink:href="#a"/><use x="81" y="45" xlink:href="#a"/><use x="87" y="45" xlink:href="#a"/><use x="96" y="45" xlink:href="#a"/><use x="99" y="45" xlink:href="#a"/><use x="18" y="48" xlink:href="#a"/><use x="21" y="48" xlink:href="#a"/><use x="27" y="48" xlink:href="#a"/><use x="30" y="48" xlink:href="#a"/><use x="39" y="48" xlink:href="#a"/><use x="51" y="48" xlink:href="#a"/><use x="57" y="48" xlink:href="#a"/><use x="60" y="48" xlink:href="#a"/><use x="72" y="48" xlink:href="#a"/><use x="78" y="48" xlink:href="#a"/><use x="81" y="48" xlink:href="#a"/><use x="90" y="48" xlink:href="#a"/><use x="96" y="48" xlink:href="#a"/><use x="99" y="48" xlink:href="#a"/><use x="105" y="48" xlink:href="#a"/><use x="15" y="51" xlink:href="#a"/><use x="24" y="51" xlink:href="#a"/><use x="33" y="51" xlink:href="#a"/><use x="39" y="51" xlink:href="#a"/><use x="42" y="51" xlink:href="#a"/><use x="45" y="51" xlink:href="#a"/><use x="51" y="51" xlink:href="#a"/><use x="54" y="51" xlink:href="#a"/><use x="57" y="51" xlink:href="#a"/><use x="60" y="51" xlink:href="#a"/><use x="66" y="51" xlink:href="#a"/><use x="81" y="51" xlink:href="#a"/><use x="90" y="51" xlink:href="#a"/><use x="96" y="51" xlink:href="#a"/><use x="99" y="51" xlink:href="#a"/><use x="15" y="54" xlink:href="#a"/><use x="18" y="54" xlink:href="#a"/><use x="27" y="54" xlink:href="#a"/><use x="30" y="54" xlink:href="#a"/><use x="36" y="54" xlink:href="#a"/><use x="54" y="54" xlink:href="#a"/><use x="63" y="54" xlink:href="#a"/><use x="66" y="54" xlink:href="#a"/><use x="69" y="54" xlink:href="#a"/><use x="72" y="54" xlink:href="#a"/><use x="75" y="54" xlink:href="#a"/><use x="78" y="54" xlink:href="#a"/><use x="81" y="54" xlink:href="#a"/><use x="84" y="54" xlink:href="#a"/><use x="93" y="54" xlink:href="#a"/><use x="102" y="54" xlink:href="#a"/><use x="108" y="54" xlink:href="#a"/><use x="111" y="54" xlink:href="#a"/><use x="15" y="57" xlink:href="#a"/><use x="24" y="57" xlink:href="#a"/><use x="30" y="57" xlink:href="#a"/><use x="33" y="57" xlink:href="#a"/><use x="39" y="57" xlink:href="#a"/><use x="42" y="57" xlink:href="#a"/><use x="45" y="57" xlink:href="#a"/><use x="48" y="57" xlink:href="#a"/><use x="51" y="57" xlink:href="#a"/><use x="54" y="57" xlink:href="#a"/><use x="57" y="57" xlink:href="#a"/><use x="60" y="57" xlink:href="#a"/><use x="63" y="57" xlink:href="#a"/><use x="66" y="57" xlink:href="#a"/><use x="75" y="57" xlink:href="#a"/><use x="78" y="57" xlink:href="#a"/><use x="81" y="57" xlink:href="#a"/><use x="90" y="57" xlink:href="#a"/><use x="102" y="57" xlink:href="#a"/><use x="108" y="57" xlink:href="#a"/><use x="21" y="60" xlink:href="#a"/><use x="24" y="60" xlink:href="#a"/><use x="27" y="60" xlink:href="#a"/><use x="30" y="60" xlink:href="#a"/><use x="39" y="60" xlink:href="#a"/><use x="45" y="60" xlink:href="#a"/><use x="48" y="60" xlink:href="#a"/><use x="60" y="60" xlink:href="#a"/><use x="69" y="60" xlink:href="#a"/><use x="72" y="60" xlink:href="#a"/><use x="75" y="60" xlink:href="#a"/><use x="78" y="60" xlink:href="#a"/><use x="84" y="60" xlink:href="#a"/><use x="87" y="60" xlink:href="#a"/><use x="90" y="60" xlink:href="#a"/><use x="93" y="60" xlink:href="#a"/><use x="105" y="60" xlink:href="#a"/><use x="21" y="63" xlink:href="#a"/><use x="24" y="63" xlink:href="#a"/><use x="30" y="63" xlink:href="#a"/><use x="33" y="63" xlink:href="#a"/><use x="36" y="63" xlink:href="#a"/><use x="39" y="63" xlink:href="#a"/><use x="42" y="63" xlink:href="#a"/><use x="45" y="63" xlink:href="#a"/><use x="48" y="63" xlink:href="#a"/><use x="60" y="63" xlink:href="#a"/><use x="72" y="63" xlink:href="#a"/><use x="78" y="63" xlink:href="#a"/><use x="81" y="63" xlink:href="#a"/><use x="90" y="63" xlink:href="#a"/><use x="96" y="63" xlink:href="#a"/><use x="99" y="63" xlink:href="#a"/><use x="108" y="63" xlink:href="#a"/><use x="15" y="66" xlink:href="#a"/><use x="21" y="66" xlink:href="#a"/><use x="39" y="66" xlink:href="#a"/><use x="45" y="66" xlink:href="#a"/><use x="51" y="66" xlink:href="#a"/><use x="54" y="66" xlink:href="#a"/><use x="63" y="66" xlink:href="#a"/><use x="66" y="66" xlink:href="#a"/><use x="72" y="66" xlink:href="#a"/><use x="81" y="66" xlink:href="#a"/><use x="84" y="66" xlink:href="#a"/><use x="90" y="66" xlink:href="#a"/><use x="93" y="66" xlink:href="#a"/><use x="102" y="66" xlink:href="#a"/><use x="108" y="66" xlink:href="#a"/><use x="111" y="66" xlink:href="#a"/><use x="15" y="69" xlink:href="#a"/><use x="18" y="69" xlink:href="#a"/><use x="24" y="69" xlink:href="#a"/><use x="27" y="69" xlink:href="#a"/><use x="33" y="69" xlink:href="#a"/><use x="39" y="69" xlink:href="#a"/><use x="42" y="69" xlink:href="#a"/><use x="45" y="69" xlink:href="#a"/><use x="54" y="69" xlink:href="#a"/><use x="57" y="69" xlink:href="#a"/><use x="60" y="69" xlink:href="#a"/><use x="63" y="69" xlink:href="#a"/><use x="66" y="69" xlink:href="#a"/><use x="81" y="69" xlink:href="#a"/><use x="90" y="69" xlink:href="#a"/><use x="99" y="69" xlink:href="#a"/><use x="102" y="69" xlink:href="#a"/><use x="108" y="69" xlink:href="#a"/><use x="15" y="72" xlink:href="#a"/><use x="24" y="72" xlink:href="#a"/><use x="30" y="72" xlink:href="#a"/><use x="36" y="72" xlink:href="#a"/><use x="39" y="72" xlink:href="#a"/><use x="51" y="72" xlink:href="#a"/><use x="54" y="72" xlink:href="#a"/><use x="60" y="72" xlink:href="#a"/><use x="63" y="72" xlink:href="#a"/><use x="72" y="72" xlink:href="#a"/><use x="78" y="72" xlink:href="#a"/><use x="81" y="72" xlink:href="#a"/><use x="90" y="72" xlink:href="#a"/><use x="96" y="72" xlink:href="#a"/><use x="99" y="72" xlink:href="#a"/><use x="102" y="72" xlink:href="#a"/><use x="105" y="72" xlink:href="#a"/><use x="18" y="75" xlink:href="#a"/><use x="24" y="75" xlink:href="#a"/><use x="33" y="75" xlink:href="#a"/><use x="36" y="75" xlink:href="#a"/><use x="51" y="75" xlink:href="#a"/><use x="57" y="75" xlink:href="#a"/><use x="66" y="75" xlink:href="#a"/><use x="75" y="75" xlink:href="#a"/><use x="81" y="75" xlink:href="#a"/><use x="87" y="75" xlink:href="#a"/><use x="90" y="75" xlink:href="#a"/><use x="96" y="75" xlink:href="#a"/><use x="99" y="75" xlink:href="#a"/><use x="108" y="75" xlink:href="#a"/><use x="15" y="78" xlink:href="#a"/><use x="21" y="78" xlink:href="#a"/><use x="24" y="78" xlink:href="#a"/><use x="36" y="78" xlink:href="#a"/><use x="39" y="78" xlink:href="#a"/><use x="45" y="78" xlink:href="#a"/><use x="63" y="78" xlink:href="#a"/><use x="72" y="78" xlink:href="#a"/><use x="84" y="78" xlink:href="#a"/><use x="93" y="78" xlink:href="#a"/><use x="102" y="78" xlink:href="#a"/><use x="108" y="78" xlink:href="#a"/><use x="111" y="78" xlink:href="#a"/><use x="15" y="81" xlink:href="#a"/><use x="21" y="81" xlink:href="#a"/><use x="27" y="81" xlink:href="#a"/><use x="30" y="81" xlink:href="#a"/><use x="33" y="81" xlink:href="#a"/><use x="36" y="81" xlink:href="#a"/><use x="39" y="81" xlink:href="#a"/><use x="45" y="81" xlink:href="#a"/><use x="48" y="81" xlink:href="#a"/><use x="51" y="81" xlink:href="#a"/><use x="60" y="81" xlink:href="#a"/><use x="63" y="81" xlink:href="#a"/><use x="69" y="81" xlink:href="#a"/><use x="75" y="81" xlink:href="#a"/><use x="78" y="81" xlink:href="#a"/><use x="81" y="81" xlink:href="#a"/><use x="87" y="81" xlink:href="#a"/><use x="90" y="81" xlink:href="#a"/><use x="93" y="81" xlink:href="#a"/><use x="105" y="81" xlink:href="#a"/><use x="108" y="81" xlink:href="#a"/><use x="15" y="84" xlink:href="#a"/><use x="21" y="84" xlink:href="#a"/><use x="24" y="84" xlink:href="#a"/><use x="27" y="84" xlink:href="#a"/><use x="36" y="84" xlink:href="#a"/><use x="48" y="84" xlink:href="#a"/><use x="57" y="84" xlink:href="#a"/><use x="60" y="84" xlink:href="#a"/><use x="69" y="84" xlink:href="#a"/><use x="72" y="84" xlink:href="#a"/><use x="75" y="84" xlink:href="#a"/><use x="78" y="84" xlink:href="#a"/><use x="81" y="84" xlink:href="#a"/><use x="93" y="84" xlink:href="#a"/><use x="99" y="84" xlink:href="#a"/><use x="102" y="84" xlink:href="#a"/><use x="105" y="84" xlink:href="#a"/><use x="15" y="87" xlink:href="#a"/><use x="24" y="87" xlink:href="#a"/><use x="27" y="87" xlink:href="#a"/><use x="33" y="87" xlink:href="#a"/><use x="36" y="87" xlink:href="#a"/><use x="39" y="87" xlink:href="#a"/><use x="42" y="87" xlink:href="#a"/><use x="45" y="87" xlink:href="#a"/><use x="48" y="87" xlink:href="#a"/><use x="66" y="87" xlink:href="#a"/><use x="72" y="87" xlink:href="#a"/><use x="81" y="87" xlink:href="#a"/><use x="87" y="87" xlink:href="#a"/><use x="90" y="87" xlink:href="#a"/><use x="93" y="87" xlink:href="#a"/><use x="96" y="87" xlink:href="#a"/><use x="99" y="87" xlink:href="#a"/><use x="111" y="87" xlink:href="#a"/><use x="39" y="90" xlink:href="#a"/><use x="42" y="90" xlink:href="#a"/><use x="51" y="90" xlink:href="#a"/><use x="54" y="90" xlink:href="#a"/><use x="57" y="90" xlink:href="#a"/><use x="63" y="90" xlink:href="#a"/><use x="69" y="90" xlink:href="#a"/><use x="72" y="90" xlink:href="#a"/><use x="78" y="90" xlink:href="#a"/><use x="84" y="90" xlink:href="#a"/><use x="87" y="90" xlink:href="#a"/><use x="99" y="90" xlink:href="#a"/><use x="111" y="90" xlink:href="#a"/><use x="15" y="93" xlink:href="#a"/><use x="18" y="93" xlink:href="#a"/><use x="21" y="93" xlink:href="#a"/><use x="24" y="93" xlink:href="#a"/><use x="27" y="93" xlink:href="#a"/><use x="30" y="93" xlink:href="#a"/><use x="33" y="93" xlink:href="#a"/><use x="39" y="93" xlink:href="#a"/><use x="42" y="93" xlink:href="#a"/><use x="54" y="93" xlink:href="#a"/><use x="57" y="93" xlink:href="#a"/><use x="60" y="93" xlink:href="#a"/><use x="75" y="93" xlink:href="#a"/><use x="78" y="93" xlink:href="#a"/><use x="84" y="93" xlink:href="#a"/><use x="87" y="93" xlink:href="#a"/><use x="93" y="93" xlink:href="#a"/><use x="99" y="93" xlink:href="#a"/><use x="102" y="93" xlink:href="#a"/><use x="105" y="93" xlink:href="#a"/><use x="108" y="93" xlink:href="#a"/><use x="15" y="96" xlink:href="#a"/><use x="33" y="96" xlink:href="#a"/><use x="51" y="96" xlink:href="#a"/><use x="54" y="96" xlink:href="#a"/><use x="72" y="96" xlink:href="#a"/><use x="78" y="96" xlink:href="#a"/><use x="81" y="96" xlink:href="#a"/><use x="84" y="96" xlink:href="#a"/><use x="87" y="96" xlink:href="#a"/><use x="99" y="96" xlink:href="#a"/><use x="102" y="96" xlink:href="#a"/><use x="105" y="96" xlink:href="#a"/><use x="108" y="96" xlink:href="#a"/><use x="111" y="96" xlink:href="#a"/><use x="15" y="99" xlink:href="#a"/><use x="21" y="99" xlink:href="#a"/><use x="24" y="99" xlink:href="#a"/><use x="27" y="99" xlink:href="#a"/><use x="33" y="99" xlink:href="#a"/><use x="39" y="99" xlink:href="#a"/><use x="45" y="99" xlink:href="#a"/><use x="51" y="99" xlink:href="#a"/><use x="57" y="99" xlink:href="#a"/><use x="60" y="99" xlink:href="#a"/><use x="63" y="99" xlink:href="#a"/><use x="66" y="99" xlink:href="#a"/><use x="72" y="99" xlink:href="#a"/><use x="81" y="99" xlink:href="#a"/><use x="87" y="99" xlink:href="#a"/><use x="90" y="99" xlink:href="#a"/><use x="93" y="99" xlink:href="#a"/><use x="96" y="99" xlink:href="#a"/><use x="99" y="99" xlink:href="#a"/><use x="108" y="99" xlink:href="#a"/><use x="111" y="99" xlink:href="#a"/><use x="15" y="102" xlink:href="#a"/><use x="21" y="102" xlink:href="#a"/><use x="24" y="102" xlink:href="#a"/><use x="27" y="102" xlink:href="#a"/><use x="33" y="102" xlink:href="#a"/><use x="39" y="102" xlink:href="#a"/><use x="42" y="102" xlink:href="#a"/><use x="45" y="102" xlink:href="#a"/><use x="63" y="102" xlink:href="#a"/><use x="66" y="102" xlink:href="#a"/><use x="69" y="102" xlink:href="#a"/><use x="72" y="102" xlink:href="#a"/><use x="75" y="102" xlink:href="#a"/><use x="78" y="102" xlink:href="#a"/><use x="81" y="102" xlink:href="#a"/><use x="90" y="102" xlink:href="#a"/><use x="96" y="102" xlink:href="#a"/><use x="99" y="102" xlink:href="#a"/><use x="102" y="102" xlink:href="#a"/><use x="108" y="102" xlink:href="#a"/><use x="111" y="102" xlink:href="#a"/><use x="15" y="105" xlink:href="#a"/><use x="21" y="105" xlink:href="#a"/><use x="24" y="105" xlink:href="#a"/><use x="27" y="105" xlink:href="#a"/><use x="33" y="105" xlink:href="#a"/><use x="39" y="105" xlink:href="#a"/><use x="48" y="105" xlink:href="#a"/><use x="51" y="105" xlink:href="#a"/><use x="60" y="105" xlink:href="#a"/><use x="63" y="105" xlink:href="#a"/><use x="66" y="105" xlink:href="#a"/><use x="75" y="105" xlink:href="#a"/><use x="84" y="105" xlink:href="#a"/><use x="93" y="105" xlink:href="#a"/><use x="96" y="105" xlink:href="#a"/><use x="102" y="105" xlink:href="#a"/><use x="105" y="105" xlink:href="#a"/><use x="15" y="108" xlink:href="#a"/><use x="33" y="108" xlink:href="#a"/><use x="39" y="108" xlink:href="#a"/><use x="45" y="108" xlink:href="#a"/><use x="48" y="108" xlink:href="#a"/><use x="57" y="108" xlink:href="#a"/><use x="60" y="108" xlink:href="#a"/><use x="63" y="108" xlink:href="#a"/><use x="69" y="108" xlink:href="#a"/><use x="75" y="108" xlink:href="#a"/><use x="78" y="108" xlink:href="#a"/><use x="81" y="108" xlink:href="#a"/><use x="90" y="108" xlink:href="#a"/><use x="99" y="108" xlink:href="#a"/><use x="102" y="108" xlink:href="#a"/><use x="105" y="108" xlink:href="#a"/><use x="15" y="111" xlink:href="#a"/><use x="18" y="111" xlink:href="#a"/><use x="21" y="111" xlink:href="#a"/><use x="24" y="111" xlink:href="#a"/><use x="27" y="111" xlink:href="#a"/><use x="30" y="111" xlink:href="#a"/><use x="33" y="111" xlink:href="#a"/><use x="39" y="111" xlink:href="#a"/><use x="45" y="111" xlink:href="#a"/><use x="48" y="111" xlink:href="#a"/><use x="60" y="111" xlink:href="#a"/><use x="66" y="111" xlink:href="#a"/><use x="75" y="111" xlink:href="#a"/><use x="81" y="111" xlink:href="#a"/><use x="87" y="111" xlink:href="#a"/><use x="90" y="111" xlink:href="#a"/><use x="93" y="111" xlink:href="#a"/><use x="96" y="111" xlink:href="#a"/><use x="102" y="111" xlink:href="#a"/><use x="108" y="111" xlink:href="#a"/></svg>