<svg version="1.1" id="Layer_1" xmlns="http://www.w3.org/2000/svg" x="0" y="0" viewBox="0 0 135.2 39.1" xml:space="preserve"><style>.st2{fill:#ffb600}</style><path d="M26.1 32.5v6c0 .4-.2.5-.6.5H9.3c-.3 0-.5 0-.7-.1-3.1-.3-5.3-1.1-6.6-2.6s-2-3.8-2-6.8V.5C0 .2.2 0 .6 0h7c.4 0 .6.2.6.5v29.7c0 1.2.7 1.8 2.2 1.8h15.2c.3 0 .5.2.5.5z" fill="#fed136"/><path d="M34.9 0h7c.4 0 .6.2.6.5v38c0 .4-.2.5-.6.5h-7c-.4 0-.6-.2-.6-.5V.5c.1-.3.3-.5.6-.5z" fill="#fcc21d"/><path class="st2" d="M52.8 6.2c0-1.2.2-2.2.7-3 .4-.8 1-1.4 1.8-1.9.7-.5 1.6-.8 2.6-1s1.9-.3 2.9-.3c1.6 0 2.9.1 3.9.3 1 .2 1.8.6 2.5 1.2s1.2 1.6 1.5 2.9c.4 1.3.7 3 1.1 5.2l3 18c0 .1.1.4.1.7.1.3.1.7.2 1l.3.9c.1.3.2.4.3.4s.2-.1.3-.4.2-.5.3-.9c.1-.3.1-.6.2-1 .1-.3.1-.5.1-.6l2.9-18.4c.3-2.1.7-3.8 1.1-5 .4-1.3.9-2.2 1.6-2.8.7-.6 1.5-1 2.6-1.2 1-.2 2.4-.3 4-.3 2.4 0 4.3.5 5.8 1.4s2.2 2.5 2.2 4.7v32.5c0 .4-.2.5-.6.5h-7c-.4 0-.6-.2-.6-.5V8.8c0-.1 0-.2-.1-.5 0-.2-.1-.4-.3-.4s-.3.1-.4.2c-.1.1-.2.3-.3.4 0 .1-.1.2-.1.5-.1.3-.1.5-.2.8-.1.3-.1.6-.2.9-.1.3-.1.5-.1.7-.2.9-.4 1.9-.6 2.9-.2 1-.5 2.3-.9 4s-.8 3.8-1.4 6.3c-.5 2.6-1.3 5.8-2.2 9.8-.1.6-.3 1.1-.6 1.7-.3.5-.6 1-1.1 1.5-.5.4-1.1.8-1.9 1.1-.8.3-1.8.4-3 .4-1.1 0-2-.1-2.7-.4-.7-.3-1.3-.6-1.7-1s-.8-.8-1-1.3-.4-.9-.5-1.4L61.7 9c0-.1-.1-.3-.2-.6s-.2-.5-.4-.6h-.3c.2.2.2.3.2.5v30.2c0 .4-.2.5-.6.5h-7c-.4 0-.6-.2-.6-.5V6.2zM115.6 22.8c-1.2 0-2.4-.1-3.7-.4s-2.5-.9-3.6-1.7c-.6-.5-1.2-1.1-1.6-1.8-.4-.7-.8-1.5-1.1-2.3-.3-.8-.5-1.7-.6-2.5-.1-.9-.2-1.7-.2-2.5v-1c0-.3 0-.7.1-1 .3-3.2 1.5-5.6 3.6-7.4.6-.5 1.4-1 2.4-1.5.9-.5 1.9-.7 2.7-.7h18.6c.4 0 .6.2.6.5v6c0 .4-.2.5-.6.5H116c-.5 0-1 .2-1.4.7s-.7.9-.9 1.3-.3.7-.3 1.1c0 .4-.1.7-.1 1.1 0 .6 0 1.2.1 1.8s.3 1.2.8 1.6c.4.4 1 .6 1.7.7.7.1 1.5.1 2.4.1h6.3c1.2 0 2.4.2 3.6.5 1.3.3 2.4.9 3.5 1.8.6.5 1.2 1.1 1.6 1.9.4.7.8 1.5 1.1 2.3s.5 1.7.6 2.6.2 1.8.2 2.6v1.1c0 .3 0 .6-.1.9-.3 3.3-1.5 5.9-3.6 7.6-.6.5-1.4 1-2.3 1.5-.9.5-1.8.7-2.6.7H106c-.4 0-.6-.2-.6-.5v-6c0-.4.2-.5.6-.5h18.1c.6 0 1-.3 1.5-.8.4-.5.7-1 .9-1.4s.3-.8.3-1.1c0-.4.1-.7.1-1.1 0-.6 0-1.2-.1-1.8-.1-.6-.3-1.2-.8-1.7-.4-.4-.9-.7-1.6-.8-.7-.2-1.5-.2-2.4-.2h-6.4v-.2z"/></svg>